<svg width="32" height="32" xmlns="http://www.w3.org/2000/svg"><g opacity=".8" clip-path="url(#a)"><path d="M16 0C7.164 0 0 7.164 0 16s7.164 16 16 16 16-7.164 16-16S24.836 0 16 0Zm8.459 21.55h-2.49c-1.406 0-1.642-.8-2.802-1.958-1.047-1.047-1.627-.244-1.603 1.247.008.396-.188.712-.66.712-1.473 0-3.592.208-5.739-2.107-2.196-2.372-4.498-7.13-4.498-7.599 0-.277.229-.401.612-.401h2.53c.671 0 .727.332.915.757.779 1.775 2.641 5.336 3.139 3.348.285-1.141.401-3.785-.82-4.013-.694-.128.528-.87 2.296-.87.44 0 .917.047 1.405.16.897.209.901.611.888 1.198-.045 2.221-.313 3.715.272 4.092.559.361 2.028-2.003 2.805-3.828.212-.504.255-.843.858-.843h3.096c1.621 0-.212 2.331-1.614 4.15-1.129 1.465-1.069 1.493.244 2.712.935.868 2.04 2.053 2.04 2.724 0 .317-.248.52-.874.52Z"/></g><defs><clipPath id="a"><path fill="#fff" d="M0 0h32v32H0z"/></clipPath></defs></svg>