<svg width="32" height="32" viewBox="0 0 32 32" fill="none" xmlns="http://www.w3.org/2000/svg">
<g opacity="0.8" clip-path="url(#clip0_48_28)">
<path d="M21.5 11.5C20.9477 11.5 20.5 11.0523 20.5 10.5C20.5 9.94774 20.9477 9.5 21.5 9.5C22.0523 9.5 22.5 9.94774 22.5 10.5C22.4998 11.0523 22.0523 11.5 21.5 11.5Z" fill="white"/>
<path d="M16 0C7.16479 0 0 7.16479 0 16C0 24.8352 7.16479 32 16 32C24.8352 32 32 24.8352 32 16C32 7.16479 24.8352 0 16 0ZM25.1321 19.7878C25.0876 20.7659 24.9321 21.4336 24.7051 22.0181C24.2278 23.2522 23.2522 24.2278 22.0181 24.7051C21.4338 24.9321 20.7659 25.0874 19.7881 25.1321C18.8083 25.1768 18.4954 25.1875 16.0002 25.1875C13.5049 25.1875 13.1921 25.1768 12.2122 25.1321C11.2344 25.0874 10.5664 24.9321 9.98218 24.7051C9.3689 24.4744 8.81372 24.1128 8.35474 23.6453C7.88745 23.1865 7.52588 22.6311 7.29517 22.0181C7.06812 21.4338 6.9126 20.7659 6.86816 19.7881C6.823 18.8081 6.8125 18.4951 6.8125 16C6.8125 13.5049 6.823 13.1919 6.86792 12.2122C6.91235 11.2341 7.06763 10.5664 7.29468 9.98193C7.52539 9.3689 7.88721 8.81348 8.35474 8.35474C8.81348 7.88721 9.3689 7.52563 9.98193 7.29492C10.5664 7.06787 11.2341 6.9126 12.2122 6.86792C13.1919 6.82324 13.5049 6.8125 16 6.8125C18.4951 6.8125 18.8081 6.82324 19.7878 6.86816C20.7659 6.9126 21.4336 7.06787 22.0181 7.29468C22.6311 7.52539 23.1865 7.88721 23.6455 8.35474C24.1128 8.81372 24.4746 9.3689 24.7051 9.98193C24.9324 10.5664 25.0876 11.2341 25.1323 12.2122C25.177 13.1919 25.1875 13.5049 25.1875 16C25.1875 18.4951 25.177 18.8081 25.1321 19.7878Z" fill="white"/>
<path fill-rule="evenodd" clip-rule="evenodd" d="M16.0042 18.8364C17.5468 18.8364 18.7974 17.5859 18.7974 16.0432C18.7974 14.5006 17.5468 13.25 16.0042 13.25C14.4615 13.25 13.2109 14.5006 13.2109 16.0432C13.2109 17.5859 14.4615 18.8364 16.0042 18.8364ZM16.0042 20.0864C18.2372 20.0864 20.0474 18.2762 20.0474 16.0432C20.0474 13.8102 18.2372 12 16.0042 12C13.7711 12 11.9609 13.8102 11.9609 16.0432C11.9609 18.2762 13.7711 20.0864 16.0042 20.0864Z" fill="white"/>
</g>
<defs>
<clipPath id="clip0_48_28">
<rect width="32" height="32" fill="white"/>
</clipPath>
</defs>
</svg>
