<svg width="32" height="32" viewBox="0 0 32 32" fill="none" xmlns="http://www.w3.org/2000/svg">
<g opacity="0.8" clip-path="url(#clip0_48_34)">
<path d="M16 0C7.164 0 0 7.164 0 16C0 24.836 7.164 32 16 32C24.836 32 32 24.836 32 16C32 7.164 24.836 0 16 0ZM24.4587 21.5507H21.9693C20.5627 21.5507 20.3267 20.7493 19.1667 19.592C18.12 18.5453 17.54 19.348 17.564 20.8387C17.572 21.2347 17.376 21.5507 16.904 21.5507C15.4307 21.5507 13.312 21.7587 11.1653 19.444C8.96933 17.072 6.66667 12.3133 6.66667 11.8453C6.66667 11.568 6.896 11.444 7.27867 11.444H9.80933C10.48 11.444 10.536 11.776 10.724 12.2013C11.5027 13.976 13.3653 17.5373 13.8627 15.5493C14.148 14.408 14.264 11.764 13.0427 11.536C12.3493 11.408 13.5707 10.6667 15.3387 10.6667C15.7787 10.6667 16.256 10.7133 16.744 10.8267C17.6413 11.0347 17.6453 11.4373 17.632 12.024C17.5867 14.2453 17.3187 15.7387 17.904 16.116C18.4627 16.4773 19.932 14.1133 20.7093 12.288C20.9213 11.784 20.964 11.4453 21.5667 11.4453H24.6627C26.284 11.4453 24.4507 13.776 23.0493 15.5947C21.92 17.06 21.98 17.088 23.2933 18.3067C24.228 19.1747 25.3333 20.36 25.3333 21.0307C25.3333 21.348 25.0853 21.5507 24.4587 21.5507Z" fill="white"/>
</g>
<defs>
<clipPath id="clip0_48_34">
<rect width="32" height="32" fill="white"/>
</clipPath>
</defs>
</svg>
